<?xml version="1.0" standalone="no"?>
<!DOCTYPE svg PUBLIC "-//W3C//DTD SVG 20010904//EN"
 "http://www.w3.org/TR/2001/REC-SVG-20010904/DTD/svg10.dtd">
<svg version="1.0" xmlns="http://www.w3.org/2000/svg"
 width="225.000000pt" height="225.000000pt" viewBox="0 0 225.000000 225.000000"
 preserveAspectRatio="xMidYMid meet">
<metadata>
Created by potrace 1.14, written by Peter Selinger 2001-2017
</metadata>
<g transform="translate(0.000000,225.000000) scale(0.100000,-0.100000)"
fill="#000000" stroke="none">
<path d="M855 2170 c-342 -5 -351 -6 -387 -28 -58 -36 -106 -96 -123 -155 -14
-48 -15 -155 -13 -888 l3 -834 22 -41 c54 -100 144 -151 256 -145 30 2 67 47
67 81 0 41 -47 90 -87 90 -39 0 -69 24 -82 63 -6 20 -9 317 -8 827 2 836 2
826 47 850 11 6 125 10 294 10 l275 0 3 -212 c3 -234 6 -247 72 -316 67 -72
87 -77 324 -80 l212 -3 0 -545 0 -545 -26 -24 -27 -25 -374 0 c-393 0 -420 -3
-437 -45 -12 -33 -5 -75 17 -99 l22 -26 392 -1 c283 0 403 3 433 12 55 17 123
78 152 137 l23 47 0 617 0 618 -329 329 c-181 181 -339 331 -350 333 -12 1
-178 1 -371 -2z m597 -447 c82 -81 148 -151 148 -155 0 -5 -52 -8 -115 -8
-133 0 -167 11 -184 61 -12 35 -15 249 -4 249 4 0 74 -66 155 -147z"/>
<path d="M680 1035 l0 -85 440 0 440 0 0 85 0 85 -440 0 -440 0 0 -85z"/>
<path d="M680 685 l0 -85 350 0 350 0 0 85 0 85 -350 0 -350 0 0 -85z"/>
</g>
</svg>
